<svg id="visual" viewBox="0 0 1600 900" width="1600" height="900" xmlns="http://www.w3.org/2000/svg" xmlns:xlink="http://www.w3.org/1999/xlink" version="1.1"><rect x="0" y="0" width="1600" height="900" fill="#FFFFFF"></rect><path d="M0 612L38.2 610.2C76.3 608.3 152.7 604.7 228.8 599.5C305 594.3 381 587.7 457.2 593C533.3 598.3 609.7 615.7 685.8 609.2C762 602.7 838 572.3 914.2 575C990.3 577.7 1066.7 613.3 1142.8 611.7C1219 610 1295 571 1371.2 571.2C1447.3 571.3 1523.7 610.7 1561.8 630.3L1600 650L1600 901L1561.8 901C1523.7 901 1447.3 901 1371.2 901C1295 901 1219 901 1142.8 901C1066.7 901 990.3 901 914.2 901C838 901 762 901 685.8 901C609.7 901 533.3 901 457.2 901C381 901 305 901 228.8 901C152.7 901 76.3 901 38.2 901L0 901Z" fill="#cdeac0"></path><path d="M0 598L38.2 606.7C76.3 615.3 152.7 632.7 228.8 643.3C305 654 381 658 457.2 653.3C533.3 648.7 609.7 635.3 685.8 630.5C762 625.7 838 629.3 914.2 645C990.3 660.7 1066.7 688.3 1142.8 700.7C1219 713 1295 710 1371.2 689.2C1447.3 668.3 1523.7 629.7 1561.8 610.3L1600 591L1600 901L1561.8 901C1523.7 901 1447.3 901 1371.2 901C1295 901 1219 901 1142.8 901C1066.7 901 990.3 901 914.2 901C838 901 762 901 685.8 901C609.7 901 533.3 901 457.2 901C381 901 305 901 228.8 901C152.7 901 76.3 901 38.2 901L0 901Z" fill="#9ad3b8"></path><path d="M0 725L38.2 713.8C76.3 702.7 152.7 680.3 228.8 674.3C305 668.3 381 678.7 457.2 683.7C533.3 688.7 609.7 688.3 685.8 689.5C762 690.7 838 693.3 914.2 697.3C990.3 701.3 1066.7 706.7 1142.8 711.2C1219 715.7 1295 719.3 1371.2 727.5C1447.3 735.7 1523.7 748.3 1561.8 754.7L1600 761L1600 901L1561.8 901C1523.7 901 1447.3 901 1371.2 901C1295 901 1219 901 1142.8 901C1066.7 901 990.3 901 914.2 901C838 901 762 901 685.8 901C609.7 901 533.3 901 457.2 901C381 901 305 901 228.8 901C152.7 901 76.3 901 38.2 901L0 901Z" fill="#6dbab5"></path><path d="M0 805L38.2 805.3C76.3 805.7 152.7 806.3 228.8 796.8C305 787.3 381 767.7 457.2 768.8C533.3 770 609.7 792 685.8 803C762 814 838 814 914.2 808.8C990.3 803.7 1066.7 793.3 1142.8 785.2C1219 777 1295 771 1371.2 768.8C1447.3 766.7 1523.7 768.3 1561.8 769.2L1600 770L1600 901L1561.8 901C1523.7 901 1447.3 901 1371.2 901C1295 901 1219 901 1142.8 901C1066.7 901 990.3 901 914.2 901C838 901 762 901 685.8 901C609.7 901 533.3 901 457.2 901C381 901 305 901 228.8 901C152.7 901 76.3 901 38.2 901L0 901Z" fill="#4c9eb0"></path><path d="M0 839L38.2 830.8C76.3 822.7 152.7 806.3 228.8 804C305 801.7 381 813.3 457.2 813.3C533.3 813.3 609.7 801.7 685.8 796.3C762 791 838 792 914.2 799.2C990.3 806.3 1066.7 819.7 1142.8 827.3C1219 835 1295 837 1371.2 838C1447.3 839 1523.7 839 1561.8 839L1600 839L1600 901L1561.8 901C1523.7 901 1447.3 901 1371.2 901C1295 901 1219 901 1142.8 901C1066.7 901 990.3 901 914.2 901C838 901 762 901 685.8 901C609.7 901 533.3 901 457.2 901C381 901 305 901 228.8 901C152.7 901 76.3 901 38.2 901L0 901Z" fill="#4281a4"></path></svg>