<svg id="visual" viewBox="0 0 1920 1080" width="1920" height="1080" xmlns="http://www.w3.org/2000/svg" xmlns:xlink="http://www.w3.org/1999/xlink" version="1.1"><rect width="1920" height="1080" fill="#E6E6FA"></rect><g><g transform="translate(526 281)"><path d="M112.2 -122.8C138 -86.5 146.2 -43.2 148.8 2.6C151.3 48.4 148.2 96.7 122.5 133.8C96.7 170.9 48.4 196.6 4.1 192.5C-40.1 188.4 -80.3 154.4 -105.1 117.3C-129.9 80.3 -139.3 40.1 -145.3 -6C-151.4 -52.2 -154 -104.4 -129.2 -140.8C-104.4 -177.1 -52.2 -197.6 -4.5 -193.1C43.2 -188.6 86.5 -159.2 112.2 -122.8Z" fill="#98FB98"></path></g><g transform="translate(1347 875)"><path d="M81.3 -79.5C102.7 -59.9 115.7 -29.9 114 -1.7C112.4 26.6 96.1 53.2 74.7 73C53.2 92.7 26.6 105.6 -3.1 108.7C-32.8 111.8 -65.5 105 -88.4 85.3C-111.3 65.5 -124.3 32.8 -121.4 2.9C-118.5 -26.9 -99.6 -53.8 -76.7 -73.5C-53.8 -93.2 -26.9 -105.7 1.5 -107.2C29.9 -108.7 59.9 -99.2 81.3 -79.5Z" fill="#98FB98"></path></g><g transform="translate(1844 739)"><path d="M75.9 -73.3C98.3 -53.6 116.3 -26.8 120.3 4C124.3 34.8 114.3 69.6 91.9 91.7C69.6 113.8 34.8 123.2 -0.9 124.1C-36.5 124.9 -73 117.2 -100.7 95.1C-128.4 73 -147.3 36.5 -143.8 3.4C-140.4 -29.6 -114.6 -59.2 -86.9 -79C-59.2 -98.7 -29.6 -108.6 -1.4 -107.2C26.8 -105.7 53.6 -93 75.9 -73.3Z" fill="#98FB98"></path></g><g transform="translate(1891 148)"><path d="M81.1 -87.8C99.8 -62.4 105.9 -31.2 104.5 -1.4C103.1 28.4 94.1 56.7 75.4 79.9C56.7 103.1 28.4 121.2 -4 125.3C-36.4 129.3 -72.8 119.3 -97.6 96C-122.3 72.8 -135.4 36.4 -133.2 2.2C-131.1 -32.1 -113.7 -64.2 -88.9 -89.6C-64.2 -114.9 -32.1 -133.5 -0.4 -133.1C31.2 -132.6 62.4 -113.1 81.1 -87.8Z" fill="#98FB98"></path></g><g transform="translate(44 55)"><path d="M103.1 -102.8C131.5 -74.7 151 -37.3 149.7 -1.3C148.4 34.8 126.4 69.5 97.9 100.8C69.5 132.1 34.8 159.8 -4.3 164.1C-43.3 168.4 -86.6 149.2 -112.6 117.9C-138.6 86.6 -147.2 43.3 -144.2 3.1C-141.1 -37.2 -126.3 -74.4 -100.3 -102.5C-74.4 -130.6 -37.2 -149.7 0.1 -149.8C37.3 -149.8 74.7 -130.9 103.1 -102.8Z" fill="#98FB98"></path></g><g transform="translate(130 824)"><path d="M99.2 -95.2C126.6 -71.8 145.4 -35.9 148.4 3C151.4 41.9 138.6 83.8 111.2 108.9C83.8 134.1 41.9 142.4 5.4 137C-31 131.6 -62 112.3 -87.1 87.2C-112.2 62 -131.4 31 -136.1 -4.7C-140.7 -40.3 -130.9 -80.7 -105.8 -104.1C-80.7 -127.6 -40.3 -134.2 -2.2 -132C35.9 -129.8 71.8 -118.7 99.2 -95.2Z" fill="#98FB98"></path></g></g></svg>