<svg id="visual" viewBox="0 0 1920 1080" width="1920" height="1080" xmlns="http://www.w3.org/2000/svg" xmlns:xlink="http://www.w3.org/1999/xlink" version="1.1"><rect x="0" y="0" width="1920" height="1080" fill="#ffeec0"></rect><path d="M0 835L45.7 809.2C91.3 783.3 182.7 731.7 274.2 738.5C365.7 745.3 457.3 810.7 548.8 839.7C640.3 868.7 731.7 861.3 823 844.5C914.3 827.7 1005.7 801.3 1097 814.7C1188.3 828 1279.7 881 1371.2 866.5C1462.7 852 1554.3 770 1645.8 743.8C1737.3 717.7 1828.7 747.3 1874.3 762.2L1920 777L1920 1081L1874.3 1081C1828.7 1081 1737.3 1081 1645.8 1081C1554.3 1081 1462.7 1081 1371.2 1081C1279.7 1081 1188.3 1081 1097 1081C1005.7 1081 914.3 1081 823 1081C731.7 1081 640.3 1081 548.8 1081C457.3 1081 365.7 1081 274.2 1081C182.7 1081 91.3 1081 45.7 1081L0 1081Z" fill="#009473" stroke-linecap="round" stroke-linejoin="miter"></path></svg>