<svg id="visual" viewBox="0 0 1920 1080" width="1920" height="1080" xmlns="http://www.w3.org/2000/svg" xmlns:xlink="http://www.w3.org/1999/xlink" version="1.1"><rect x="0" y="0" width="1920" height="1080" fill="#FFFAFA"></rect><path d="M0 714L53.3 722.2C106.7 730.3 213.3 746.7 320 753.3C426.7 760 533.3 757 640 759.7C746.7 762.3 853.3 770.7 960 765.7C1066.7 760.7 1173.3 742.3 1280 731.8C1386.7 721.3 1493.3 718.7 1600 712.2C1706.7 705.7 1813.3 695.3 1866.7 690.2L1920 685L1920 1081L1866.7 1081C1813.3 1081 1706.7 1081 1600 1081C1493.3 1081 1386.7 1081 1280 1081C1173.3 1081 1066.7 1081 960 1081C853.3 1081 746.7 1081 640 1081C533.3 1081 426.7 1081 320 1081C213.3 1081 106.7 1081 53.3 1081L0 1081Z" fill="#ffe5b4"></path><path d="M0 883L53.3 870C106.7 857 213.3 831 320 821.8C426.7 812.7 533.3 820.3 640 835C746.7 849.7 853.3 871.3 960 866.3C1066.7 861.3 1173.3 829.7 1280 814.8C1386.7 800 1493.3 802 1600 811.8C1706.7 821.7 1813.3 839.3 1866.7 848.2L1920 857L1920 1081L1866.7 1081C1813.3 1081 1706.7 1081 1600 1081C1493.3 1081 1386.7 1081 1280 1081C1173.3 1081 1066.7 1081 960 1081C853.3 1081 746.7 1081 640 1081C533.3 1081 426.7 1081 320 1081C213.3 1081 106.7 1081 53.3 1081L0 1081Z" fill="#e0ee97"></path><path d="M0 918L53.3 927.2C106.7 936.3 213.3 954.7 320 955.2C426.7 955.7 533.3 938.3 640 927.5C746.7 916.7 853.3 912.3 960 914C1066.7 915.7 1173.3 923.3 1280 925.2C1386.7 927 1493.3 923 1600 920.2C1706.7 917.3 1813.3 915.7 1866.7 914.8L1920 914L1920 1081L1866.7 1081C1813.3 1081 1706.7 1081 1600 1081C1493.3 1081 1386.7 1081 1280 1081C1173.3 1081 1066.7 1081 960 1081C853.3 1081 746.7 1081 640 1081C533.3 1081 426.7 1081 320 1081C213.3 1081 106.7 1081 53.3 1081L0 1081Z" fill="#98fb98"></path></svg>