<svg id="visual" viewBox="0 0 1920 1080" width="1920" height="1080" xmlns="http://www.w3.org/2000/svg" xmlns:xlink="http://www.w3.org/1999/xlink" version="1.1"><path d="M0 77L320 77L320 141L640 141L640 163L960 163L960 120L1280 120L1280 109L1600 109L1600 109L1920 109L1920 87L1920 0L1920 0L1600 0L1600 0L1280 0L1280 0L960 0L960 0L640 0L640 0L320 0L320 0L0 0Z" fill="#ff6347"></path><path d="M0 228L320 228L320 325L640 325L640 325L960 325L960 282L1280 282L1280 271L1600 271L1600 325L1920 325L1920 303L1920 85L1920 107L1600 107L1600 107L1280 107L1280 118L960 118L960 161L640 161L640 139L320 139L320 75L0 75Z" fill="#ff6c40"></path><path d="M0 444L320 444L320 606L640 606L640 606L960 606L960 617L1280 617L1280 584L1600 584L1600 552L1920 552L1920 465L1920 301L1920 323L1600 323L1600 269L1280 269L1280 280L960 280L960 323L640 323L640 323L320 323L320 226L0 226Z" fill="#ff7538"></path><path d="M0 811L320 811L320 746L640 746L640 768L960 768L960 811L1280 811L1280 746L1600 746L1600 757L1920 757L1920 768L1920 463L1920 550L1600 550L1600 582L1280 582L1280 615L960 615L960 604L640 604L640 604L320 604L320 442L0 442Z" fill="#ff7e31"></path><path d="M0 854L320 854L320 833L640 833L640 843L960 843L960 876L1280 876L1280 822L1600 822L1600 811L1920 811L1920 811L1920 766L1920 755L1600 755L1600 744L1280 744L1280 809L960 809L960 766L640 766L640 744L320 744L320 809L0 809Z" fill="#ff8829"></path><path d="M0 930L320 930L320 930L640 930L640 962L960 962L960 962L1280 962L1280 908L1600 908L1600 887L1920 887L1920 941L1920 809L1920 809L1600 809L1600 820L1280 820L1280 874L960 874L960 841L640 841L640 831L320 831L320 852L0 852Z" fill="#ff911f"></path><path d="M0 1038L320 1038L320 1027L640 1027L640 1027L960 1027L960 1027L1280 1027L1280 984L1600 984L1600 995L1920 995L1920 1027L1920 939L1920 885L1600 885L1600 906L1280 906L1280 960L960 960L960 960L640 960L640 928L320 928L320 928L0 928Z" fill="#ff9b13"></path><path d="M0 1081L320 1081L320 1081L640 1081L640 1081L960 1081L960 1081L1280 1081L1280 1081L1600 1081L1600 1081L1920 1081L1920 1081L1920 1025L1920 993L1600 993L1600 982L1280 982L1280 1025L960 1025L960 1025L640 1025L640 1025L320 1025L320 1036L0 1036Z" fill="#ffa500"></path></svg>